<mxfile host="app.diagrams.net" modified="2022-03-25T23:59:07.479Z" agent="5.0 (Windows NT 10.0; Win64; x64) AppleWebKit/537.36 (KHTML, like Gecko) Chrome/99.0.4844.83 Safari/537.36" etag="xBCrBECBrNVKKmpxUAZp" version="17.2.4" type="github" pages="3">
  <diagram id="ahnBGgclnv2Bb4FaTv1x" name="2.1">
    <mxGraphModel dx="1422" dy="758" grid="1" gridSize="10" guides="1" tooltips="1" connect="1" arrows="1" fold="1" page="1" pageScale="1" pageWidth="827" pageHeight="1169" math="0" shadow="0">
      <root>
        <mxCell id="0" />
        <mxCell id="1" parent="0" />
        <mxCell id="NI9rTlBRbjQuHYcx2I_f-54" style="edgeStyle=none;rounded=0;orthogonalLoop=1;jettySize=auto;html=1;exitX=0.5;exitY=1;exitDx=0;exitDy=0;entryX=0.5;entryY=0;entryDx=0;entryDy=0;endArrow=none;endFill=0;" parent="1" source="NI9rTlBRbjQuHYcx2I_f-12" target="NI9rTlBRbjQuHYcx2I_f-53" edge="1">
          <mxGeometry relative="1" as="geometry" />
        </mxCell>
        <mxCell id="NI9rTlBRbjQuHYcx2I_f-12" value="Produto" style="rounded=0;whiteSpace=wrap;html=1;" parent="1" vertex="1">
          <mxGeometry x="510" y="80" width="100" height="40" as="geometry" />
        </mxCell>
        <mxCell id="NI9rTlBRbjQuHYcx2I_f-17" style="rounded=0;orthogonalLoop=1;jettySize=auto;html=1;exitX=0;exitY=0.5;exitDx=0;exitDy=0;entryX=1;entryY=0;entryDx=0;entryDy=0;endArrow=none;endFill=0;" parent="1" source="NI9rTlBRbjQuHYcx2I_f-13" target="NI9rTlBRbjQuHYcx2I_f-12" edge="1">
          <mxGeometry relative="1" as="geometry" />
        </mxCell>
        <mxCell id="NI9rTlBRbjQuHYcx2I_f-13" value="&lt;u&gt;Código&lt;/u&gt;" style="ellipse;whiteSpace=wrap;html=1;" parent="1" vertex="1">
          <mxGeometry x="660" y="40" width="100" height="40" as="geometry" />
        </mxCell>
        <mxCell id="NI9rTlBRbjQuHYcx2I_f-19" style="edgeStyle=none;rounded=0;orthogonalLoop=1;jettySize=auto;html=1;exitX=0;exitY=0;exitDx=0;exitDy=0;entryX=1;entryY=0.75;entryDx=0;entryDy=0;endArrow=none;endFill=0;" parent="1" source="NI9rTlBRbjQuHYcx2I_f-14" target="NI9rTlBRbjQuHYcx2I_f-12" edge="1">
          <mxGeometry relative="1" as="geometry" />
        </mxCell>
        <mxCell id="NI9rTlBRbjQuHYcx2I_f-14" value="Nome" style="ellipse;whiteSpace=wrap;html=1;" parent="1" vertex="1">
          <mxGeometry x="660" y="140" width="100" height="40" as="geometry" />
        </mxCell>
        <mxCell id="NI9rTlBRbjQuHYcx2I_f-18" style="edgeStyle=none;rounded=0;orthogonalLoop=1;jettySize=auto;html=1;exitX=0;exitY=0;exitDx=0;exitDy=0;entryX=1;entryY=0.25;entryDx=0;entryDy=0;endArrow=none;endFill=0;" parent="1" source="NI9rTlBRbjQuHYcx2I_f-15" target="NI9rTlBRbjQuHYcx2I_f-12" edge="1">
          <mxGeometry relative="1" as="geometry" />
        </mxCell>
        <mxCell id="NI9rTlBRbjQuHYcx2I_f-15" value="Preço" style="ellipse;whiteSpace=wrap;html=1;" parent="1" vertex="1">
          <mxGeometry x="660" y="90" width="100" height="40" as="geometry" />
        </mxCell>
        <mxCell id="NI9rTlBRbjQuHYcx2I_f-20" style="edgeStyle=none;rounded=0;orthogonalLoop=1;jettySize=auto;html=1;exitX=0;exitY=0.5;exitDx=0;exitDy=0;entryX=1;entryY=1;entryDx=0;entryDy=0;endArrow=none;endFill=0;" parent="1" source="NI9rTlBRbjQuHYcx2I_f-16" target="NI9rTlBRbjQuHYcx2I_f-12" edge="1">
          <mxGeometry relative="1" as="geometry" />
        </mxCell>
        <mxCell id="NI9rTlBRbjQuHYcx2I_f-16" value="Taxa IVA" style="ellipse;whiteSpace=wrap;html=1;" parent="1" vertex="1">
          <mxGeometry x="660" y="190" width="100" height="40" as="geometry" />
        </mxCell>
        <mxCell id="NI9rTlBRbjQuHYcx2I_f-25" style="edgeStyle=none;rounded=0;orthogonalLoop=1;jettySize=auto;html=1;exitX=0.5;exitY=0;exitDx=0;exitDy=0;entryX=0.75;entryY=1;entryDx=0;entryDy=0;endArrow=none;endFill=0;" parent="1" source="NI9rTlBRbjQuHYcx2I_f-23" target="96TMA-T8mupad2O979fo-3" edge="1">
          <mxGeometry relative="1" as="geometry">
            <mxPoint x="585" y="280.0000000000001" as="targetPoint" />
          </mxGeometry>
        </mxCell>
        <mxCell id="NI9rTlBRbjQuHYcx2I_f-23" value="Data" style="ellipse;whiteSpace=wrap;html=1;" parent="1" vertex="1">
          <mxGeometry x="570" y="320" width="100" height="40" as="geometry" />
        </mxCell>
        <mxCell id="NI9rTlBRbjQuHYcx2I_f-26" value="Fornecedor" style="rounded=0;whiteSpace=wrap;html=1;" parent="1" vertex="1">
          <mxGeometry x="160" y="240" width="100" height="40" as="geometry" />
        </mxCell>
        <mxCell id="NI9rTlBRbjQuHYcx2I_f-33" style="edgeStyle=none;rounded=0;orthogonalLoop=1;jettySize=auto;html=1;exitX=1;exitY=0.5;exitDx=0;exitDy=0;entryX=0;entryY=0;entryDx=0;entryDy=0;endArrow=none;endFill=0;" parent="1" source="NI9rTlBRbjQuHYcx2I_f-27" target="NI9rTlBRbjQuHYcx2I_f-26" edge="1">
          <mxGeometry relative="1" as="geometry" />
        </mxCell>
        <mxCell id="NI9rTlBRbjQuHYcx2I_f-27" value="&lt;u&gt;NIF&lt;/u&gt;" style="ellipse;whiteSpace=wrap;html=1;" parent="1" vertex="1">
          <mxGeometry x="40" y="160" width="100" height="40" as="geometry" />
        </mxCell>
        <mxCell id="NI9rTlBRbjQuHYcx2I_f-34" style="edgeStyle=none;rounded=0;orthogonalLoop=1;jettySize=auto;html=1;exitX=1;exitY=0.5;exitDx=0;exitDy=0;entryX=0;entryY=0.25;entryDx=0;entryDy=0;endArrow=none;endFill=0;" parent="1" source="NI9rTlBRbjQuHYcx2I_f-28" target="NI9rTlBRbjQuHYcx2I_f-26" edge="1">
          <mxGeometry relative="1" as="geometry" />
        </mxCell>
        <mxCell id="NI9rTlBRbjQuHYcx2I_f-28" value="Nome" style="ellipse;whiteSpace=wrap;html=1;" parent="1" vertex="1">
          <mxGeometry x="40" y="210" width="100" height="40" as="geometry" />
        </mxCell>
        <mxCell id="NI9rTlBRbjQuHYcx2I_f-35" style="edgeStyle=none;rounded=0;orthogonalLoop=1;jettySize=auto;html=1;exitX=1;exitY=0.5;exitDx=0;exitDy=0;entryX=0;entryY=0.5;entryDx=0;entryDy=0;endArrow=none;endFill=0;" parent="1" source="NI9rTlBRbjQuHYcx2I_f-29" target="NI9rTlBRbjQuHYcx2I_f-26" edge="1">
          <mxGeometry relative="1" as="geometry" />
        </mxCell>
        <mxCell id="NI9rTlBRbjQuHYcx2I_f-29" value="Endereço" style="ellipse;whiteSpace=wrap;html=1;" parent="1" vertex="1">
          <mxGeometry x="40" y="260" width="100" height="40" as="geometry" />
        </mxCell>
        <mxCell id="NI9rTlBRbjQuHYcx2I_f-36" style="edgeStyle=none;rounded=0;orthogonalLoop=1;jettySize=auto;html=1;exitX=1;exitY=0;exitDx=0;exitDy=0;entryX=0;entryY=1;entryDx=0;entryDy=0;endArrow=none;endFill=0;" parent="1" source="NI9rTlBRbjQuHYcx2I_f-30" target="NI9rTlBRbjQuHYcx2I_f-26" edge="1">
          <mxGeometry relative="1" as="geometry" />
        </mxCell>
        <mxCell id="NI9rTlBRbjQuHYcx2I_f-30" value="Fax" style="ellipse;whiteSpace=wrap;html=1;" parent="1" vertex="1">
          <mxGeometry x="40" y="310" width="100" height="40" as="geometry" />
        </mxCell>
        <mxCell id="NI9rTlBRbjQuHYcx2I_f-37" style="edgeStyle=none;rounded=0;orthogonalLoop=1;jettySize=auto;html=1;exitX=1;exitY=0;exitDx=0;exitDy=0;entryX=0.25;entryY=1;entryDx=0;entryDy=0;endArrow=none;endFill=0;" parent="1" source="NI9rTlBRbjQuHYcx2I_f-32" target="NI9rTlBRbjQuHYcx2I_f-26" edge="1">
          <mxGeometry relative="1" as="geometry" />
        </mxCell>
        <mxCell id="NI9rTlBRbjQuHYcx2I_f-32" value="Pagamento" style="ellipse;shape=doubleEllipse;margin=3;whiteSpace=wrap;html=1;align=center;" parent="1" vertex="1">
          <mxGeometry x="50" y="360" width="100" height="40" as="geometry" />
        </mxCell>
        <mxCell id="NI9rTlBRbjQuHYcx2I_f-39" style="edgeStyle=none;rounded=0;orthogonalLoop=1;jettySize=auto;html=1;exitX=0.5;exitY=0;exitDx=0;exitDy=0;entryX=0.5;entryY=1;entryDx=0;entryDy=0;endArrow=none;endFill=0;" parent="1" source="NI9rTlBRbjQuHYcx2I_f-38" target="NI9rTlBRbjQuHYcx2I_f-26" edge="1">
          <mxGeometry relative="1" as="geometry" />
        </mxCell>
        <mxCell id="NI9rTlBRbjQuHYcx2I_f-41" style="edgeStyle=none;rounded=0;orthogonalLoop=1;jettySize=auto;html=1;exitX=0.5;exitY=1;exitDx=0;exitDy=0;entryX=0.5;entryY=0;entryDx=0;entryDy=0;endArrow=none;endFill=0;" parent="1" source="NI9rTlBRbjQuHYcx2I_f-38" target="NI9rTlBRbjQuHYcx2I_f-40" edge="1">
          <mxGeometry relative="1" as="geometry" />
        </mxCell>
        <mxCell id="NI9rTlBRbjQuHYcx2I_f-38" value="&lt;u&gt;Código&lt;/u&gt;" style="ellipse;whiteSpace=wrap;html=1;align=center;" parent="1" vertex="1">
          <mxGeometry x="160" y="360" width="100" height="40" as="geometry" />
        </mxCell>
        <mxCell id="NI9rTlBRbjQuHYcx2I_f-40" value="Designação" style="ellipse;whiteSpace=wrap;html=1;align=center;" parent="1" vertex="1">
          <mxGeometry x="160" y="410" width="100" height="40" as="geometry" />
        </mxCell>
        <mxCell id="NI9rTlBRbjQuHYcx2I_f-49" style="edgeStyle=none;rounded=0;orthogonalLoop=1;jettySize=auto;html=1;exitX=1;exitY=0.5;exitDx=0;exitDy=0;entryX=0;entryY=0.5;entryDx=0;entryDy=0;endArrow=none;endFill=0;" parent="1" source="NI9rTlBRbjQuHYcx2I_f-42" target="NI9rTlBRbjQuHYcx2I_f-47" edge="1">
          <mxGeometry relative="1" as="geometry" />
        </mxCell>
        <mxCell id="NI9rTlBRbjQuHYcx2I_f-51" value="1" style="edgeLabel;html=1;align=center;verticalAlign=middle;resizable=0;points=[];" parent="NI9rTlBRbjQuHYcx2I_f-49" vertex="1" connectable="0">
          <mxGeometry x="-0.5011" y="-2" relative="1" as="geometry">
            <mxPoint x="-12" y="-12" as="offset" />
          </mxGeometry>
        </mxCell>
        <mxCell id="NI9rTlBRbjQuHYcx2I_f-69" value="" style="edgeStyle=none;rounded=0;orthogonalLoop=1;jettySize=auto;html=1;fontSize=11;endArrow=none;endFill=0;" parent="1" source="NI9rTlBRbjQuHYcx2I_f-42" target="NI9rTlBRbjQuHYcx2I_f-47" edge="1">
          <mxGeometry relative="1" as="geometry" />
        </mxCell>
        <mxCell id="NI9rTlBRbjQuHYcx2I_f-42" value="Empresa" style="whiteSpace=wrap;html=1;align=center;" parent="1" vertex="1">
          <mxGeometry x="160" y="80" width="100" height="40" as="geometry" />
        </mxCell>
        <mxCell id="NI9rTlBRbjQuHYcx2I_f-46" style="edgeStyle=none;rounded=0;orthogonalLoop=1;jettySize=auto;html=1;exitX=1;exitY=0.5;exitDx=0;exitDy=0;entryX=0;entryY=0;entryDx=0;entryDy=0;endArrow=none;endFill=0;" parent="1" source="NI9rTlBRbjQuHYcx2I_f-43" target="NI9rTlBRbjQuHYcx2I_f-42" edge="1">
          <mxGeometry relative="1" as="geometry" />
        </mxCell>
        <mxCell id="NI9rTlBRbjQuHYcx2I_f-43" value="Nome" style="ellipse;whiteSpace=wrap;html=1;align=center;" parent="1" vertex="1">
          <mxGeometry x="40" y="40" width="100" height="40" as="geometry" />
        </mxCell>
        <mxCell id="NI9rTlBRbjQuHYcx2I_f-45" style="edgeStyle=none;rounded=0;orthogonalLoop=1;jettySize=auto;html=1;exitX=1;exitY=0.5;exitDx=0;exitDy=0;entryX=0;entryY=0.75;entryDx=0;entryDy=0;endArrow=none;endFill=0;" parent="1" source="NI9rTlBRbjQuHYcx2I_f-44" target="NI9rTlBRbjQuHYcx2I_f-42" edge="1">
          <mxGeometry relative="1" as="geometry" />
        </mxCell>
        <mxCell id="NI9rTlBRbjQuHYcx2I_f-44" value="&lt;u&gt;NIF&lt;/u&gt;" style="ellipse;whiteSpace=wrap;html=1;align=center;" parent="1" vertex="1">
          <mxGeometry x="40" y="90" width="100" height="40" as="geometry" />
        </mxCell>
        <mxCell id="NI9rTlBRbjQuHYcx2I_f-47" value="Possui" style="shape=rhombus;perimeter=rhombusPerimeter;whiteSpace=wrap;html=1;align=center;" parent="1" vertex="1">
          <mxGeometry x="350" y="80" width="80" height="40" as="geometry" />
        </mxCell>
        <mxCell id="NI9rTlBRbjQuHYcx2I_f-55" style="edgeStyle=none;rounded=0;orthogonalLoop=1;jettySize=auto;html=1;exitX=0.5;exitY=1;exitDx=0;exitDy=0;entryX=0.5;entryY=0;entryDx=0;entryDy=0;endArrow=none;endFill=0;startArrow=none;" parent="1" edge="1">
          <mxGeometry relative="1" as="geometry">
            <mxPoint x="560" y="280.0000000000001" as="sourcePoint" />
            <mxPoint x="560" y="280.0000000000001" as="targetPoint" />
          </mxGeometry>
        </mxCell>
        <mxCell id="NI9rTlBRbjQuHYcx2I_f-53" value="Contem" style="shape=rhombus;perimeter=rhombusPerimeter;whiteSpace=wrap;html=1;align=center;" parent="1" vertex="1">
          <mxGeometry x="520" y="160" width="80" height="40" as="geometry" />
        </mxCell>
        <mxCell id="NI9rTlBRbjQuHYcx2I_f-57" style="edgeStyle=none;rounded=0;orthogonalLoop=1;jettySize=auto;html=1;exitX=1;exitY=0.5;exitDx=0;exitDy=0;entryX=0;entryY=0.5;entryDx=0;entryDy=0;endArrow=none;endFill=0;" parent="1" source="NI9rTlBRbjQuHYcx2I_f-58" target="NI9rTlBRbjQuHYcx2I_f-53" edge="1">
          <mxGeometry relative="1" as="geometry">
            <mxPoint x="479.99999999999727" y="200" as="sourcePoint" />
          </mxGeometry>
        </mxCell>
        <mxCell id="NI9rTlBRbjQuHYcx2I_f-58" value="Quantidade" style="ellipse;whiteSpace=wrap;html=1;align=center;" parent="1" vertex="1">
          <mxGeometry x="390" y="160" width="100" height="40" as="geometry" />
        </mxCell>
        <mxCell id="NI9rTlBRbjQuHYcx2I_f-61" style="edgeStyle=none;rounded=0;orthogonalLoop=1;jettySize=auto;html=1;exitX=0;exitY=0.5;exitDx=0;exitDy=0;entryX=1;entryY=0.5;entryDx=0;entryDy=0;endArrow=none;endFill=0;" parent="1" source="NI9rTlBRbjQuHYcx2I_f-59" target="NI9rTlBRbjQuHYcx2I_f-26" edge="1">
          <mxGeometry relative="1" as="geometry" />
        </mxCell>
        <mxCell id="NI9rTlBRbjQuHYcx2I_f-59" value="Realiza" style="shape=rhombus;perimeter=rhombusPerimeter;whiteSpace=wrap;html=1;align=center;" parent="1" vertex="1">
          <mxGeometry x="350" y="240" width="80" height="40" as="geometry" />
        </mxCell>
        <mxCell id="NI9rTlBRbjQuHYcx2I_f-68" style="edgeStyle=none;rounded=0;orthogonalLoop=1;jettySize=auto;html=1;exitX=0;exitY=0.5;exitDx=0;exitDy=0;entryX=1;entryY=0.5;entryDx=0;entryDy=0;fontSize=11;endArrow=none;endFill=0;" parent="1" source="NI9rTlBRbjQuHYcx2I_f-74" target="96TMA-T8mupad2O979fo-3" edge="1">
          <mxGeometry relative="1" as="geometry">
            <mxPoint x="674.8322184796605" y="315.7832372577351" as="sourcePoint" />
            <mxPoint x="610" y="260" as="targetPoint" />
          </mxGeometry>
        </mxCell>
        <mxCell id="NI9rTlBRbjQuHYcx2I_f-74" value="Preço" style="ellipse;whiteSpace=wrap;html=1;align=center;dashed=1;fontSize=11;" parent="1" vertex="1">
          <mxGeometry x="660" y="270" width="100" height="40" as="geometry" />
        </mxCell>
        <mxCell id="96TMA-T8mupad2O979fo-2" style="edgeStyle=none;rounded=0;orthogonalLoop=1;jettySize=auto;html=1;exitX=0.5;exitY=1;exitDx=0;exitDy=0;entryX=0.5;entryY=0;entryDx=0;entryDy=0;fontSize=11;endArrow=none;endFill=0;" parent="1" source="96TMA-T8mupad2O979fo-1" target="NI9rTlBRbjQuHYcx2I_f-47" edge="1">
          <mxGeometry relative="1" as="geometry" />
        </mxCell>
        <mxCell id="96TMA-T8mupad2O979fo-1" value="Quantidade" style="ellipse;whiteSpace=wrap;html=1;align=center;fontSize=11;dashed=1;" parent="1" vertex="1">
          <mxGeometry x="340" y="20" width="100" height="40" as="geometry" />
        </mxCell>
        <mxCell id="96TMA-T8mupad2O979fo-3" value="Encomenda" style="whiteSpace=wrap;html=1;align=center;fontSize=11;" parent="1" vertex="1">
          <mxGeometry x="510" y="240" width="100" height="40" as="geometry" />
        </mxCell>
        <mxCell id="96TMA-T8mupad2O979fo-6" value="M" style="text;html=1;align=center;verticalAlign=middle;resizable=0;points=[];autosize=1;strokeColor=none;fillColor=none;fontSize=11;" parent="1" vertex="1">
          <mxGeometry x="570" y="220" width="20" height="20" as="geometry" />
        </mxCell>
        <mxCell id="96TMA-T8mupad2O979fo-7" value="N" style="text;html=1;align=center;verticalAlign=middle;resizable=0;points=[];autosize=1;strokeColor=none;fillColor=none;fontSize=11;" parent="1" vertex="1">
          <mxGeometry x="570" y="120" width="20" height="20" as="geometry" />
        </mxCell>
        <mxCell id="ecUpikWlXzEcB-s5SnCp-3" value="" style="shape=link;html=1;rounded=0;entryX=0;entryY=0.5;entryDx=0;entryDy=0;exitX=1;exitY=0.5;exitDx=0;exitDy=0;" parent="1" source="NI9rTlBRbjQuHYcx2I_f-47" target="NI9rTlBRbjQuHYcx2I_f-12" edge="1">
          <mxGeometry relative="1" as="geometry">
            <mxPoint x="320" y="280" as="sourcePoint" />
            <mxPoint x="480" y="280" as="targetPoint" />
          </mxGeometry>
        </mxCell>
        <mxCell id="ecUpikWlXzEcB-s5SnCp-4" value="N" style="resizable=0;html=1;align=right;verticalAlign=bottom;" parent="ecUpikWlXzEcB-s5SnCp-3" connectable="0" vertex="1">
          <mxGeometry x="1" relative="1" as="geometry" />
        </mxCell>
        <mxCell id="ecUpikWlXzEcB-s5SnCp-5" value="N" style="text;html=1;align=center;verticalAlign=middle;resizable=0;points=[];autosize=1;strokeColor=none;fillColor=none;" parent="1" vertex="1">
          <mxGeometry x="490" y="240" width="20" height="20" as="geometry" />
        </mxCell>
        <mxCell id="ecUpikWlXzEcB-s5SnCp-6" value="1" style="text;html=1;align=center;verticalAlign=middle;resizable=0;points=[];autosize=1;strokeColor=none;fillColor=none;" parent="1" vertex="1">
          <mxGeometry x="260" y="240" width="20" height="20" as="geometry" />
        </mxCell>
        <mxCell id="M9a_LwV_WBm_t7KRentP-1" value="" style="shape=link;html=1;rounded=0;entryX=0.5;entryY=0;entryDx=0;entryDy=0;exitX=0.5;exitY=1;exitDx=0;exitDy=0;" parent="1" source="NI9rTlBRbjQuHYcx2I_f-53" target="96TMA-T8mupad2O979fo-3" edge="1">
          <mxGeometry relative="1" as="geometry">
            <mxPoint x="330" y="220" as="sourcePoint" />
            <mxPoint x="490" y="220" as="targetPoint" />
          </mxGeometry>
        </mxCell>
        <mxCell id="M9a_LwV_WBm_t7KRentP-4" value="" style="shape=link;html=1;rounded=0;exitX=1;exitY=0.5;exitDx=0;exitDy=0;entryX=0;entryY=0.5;entryDx=0;entryDy=0;" parent="1" source="NI9rTlBRbjQuHYcx2I_f-59" target="96TMA-T8mupad2O979fo-3" edge="1">
          <mxGeometry relative="1" as="geometry">
            <mxPoint x="410" y="440" as="sourcePoint" />
            <mxPoint x="570" y="440" as="targetPoint" />
          </mxGeometry>
        </mxCell>
        <mxCell id="HuOL3A7bQ5gyLyAM46tB-2" style="rounded=0;orthogonalLoop=1;jettySize=auto;html=1;exitX=0.5;exitY=0;exitDx=0;exitDy=0;entryX=0.25;entryY=1;entryDx=0;entryDy=0;endArrow=none;endFill=0;" parent="1" source="HuOL3A7bQ5gyLyAM46tB-1" target="96TMA-T8mupad2O979fo-3" edge="1">
          <mxGeometry relative="1" as="geometry" />
        </mxCell>
        <mxCell id="HuOL3A7bQ5gyLyAM46tB-1" value="&lt;u&gt;Número&lt;/u&gt;" style="ellipse;whiteSpace=wrap;html=1;" parent="1" vertex="1">
          <mxGeometry x="450" y="320" width="100" height="40" as="geometry" />
        </mxCell>
      </root>
    </mxGraphModel>
  </diagram>
  <diagram id="Dxizq8G5F_xTcP-vWK09" name="2.2">
    <mxGraphModel dx="1422" dy="758" grid="1" gridSize="10" guides="1" tooltips="1" connect="1" arrows="1" fold="1" page="1" pageScale="1" pageWidth="827" pageHeight="1169" math="0" shadow="0">
      <root>
        <mxCell id="0" />
        <mxCell id="1" parent="0" />
        <mxCell id="9DwiZmUM9ChjFVyKQQpv-64" style="edgeStyle=none;rounded=0;orthogonalLoop=1;jettySize=auto;html=1;exitX=1;exitY=0;exitDx=0;exitDy=0;entryX=0;entryY=0.5;entryDx=0;entryDy=0;fontSize=12;endArrow=none;endFill=0;" parent="1" source="TZNe4MVtMT3B7-HgEFiv-1" target="TZNe4MVtMT3B7-HgEFiv-2" edge="1">
          <mxGeometry relative="1" as="geometry" />
        </mxCell>
        <mxCell id="9DwiZmUM9ChjFVyKQQpv-71" style="edgeStyle=none;rounded=0;orthogonalLoop=1;jettySize=auto;html=1;exitX=0.5;exitY=1;exitDx=0;exitDy=0;entryX=0.5;entryY=0;entryDx=0;entryDy=0;fontSize=12;endArrow=none;endFill=0;" parent="1" source="TZNe4MVtMT3B7-HgEFiv-1" target="9DwiZmUM9ChjFVyKQQpv-70" edge="1">
          <mxGeometry relative="1" as="geometry" />
        </mxCell>
        <mxCell id="9DwiZmUM9ChjFVyKQQpv-76" value="1" style="edgeLabel;html=1;align=center;verticalAlign=middle;resizable=0;points=[];fontSize=12;labelBackgroundColor=none;" parent="9DwiZmUM9ChjFVyKQQpv-71" vertex="1" connectable="0">
          <mxGeometry x="-0.3556" y="1" relative="1" as="geometry">
            <mxPoint x="7" y="-28" as="offset" />
          </mxGeometry>
        </mxCell>
        <mxCell id="TZNe4MVtMT3B7-HgEFiv-1" value="Farmácia" style="whiteSpace=wrap;html=1;align=center;fontSize=11;" parent="1" vertex="1">
          <mxGeometry x="541" y="400" width="100" height="40" as="geometry" />
        </mxCell>
        <mxCell id="TZNe4MVtMT3B7-HgEFiv-2" value="&lt;u&gt;NIF&lt;/u&gt;" style="ellipse;whiteSpace=wrap;html=1;align=center;fontSize=11;" parent="1" vertex="1">
          <mxGeometry x="680" y="340" width="100" height="40" as="geometry" />
        </mxCell>
        <mxCell id="9DwiZmUM9ChjFVyKQQpv-65" style="edgeStyle=none;rounded=0;orthogonalLoop=1;jettySize=auto;html=1;exitX=0;exitY=0.5;exitDx=0;exitDy=0;fontSize=12;endArrow=none;endFill=0;entryX=1;entryY=0.25;entryDx=0;entryDy=0;" parent="1" source="TZNe4MVtMT3B7-HgEFiv-4" target="TZNe4MVtMT3B7-HgEFiv-1" edge="1">
          <mxGeometry relative="1" as="geometry">
            <mxPoint x="670" y="410" as="targetPoint" />
          </mxGeometry>
        </mxCell>
        <mxCell id="TZNe4MVtMT3B7-HgEFiv-4" value="Nome" style="ellipse;whiteSpace=wrap;html=1;align=center;fontSize=11;" parent="1" vertex="1">
          <mxGeometry x="680" y="380" width="100" height="40" as="geometry" />
        </mxCell>
        <mxCell id="9DwiZmUM9ChjFVyKQQpv-67" style="edgeStyle=none;rounded=0;orthogonalLoop=1;jettySize=auto;html=1;exitX=0;exitY=0.5;exitDx=0;exitDy=0;entryX=1;entryY=0.75;entryDx=0;entryDy=0;fontSize=12;endArrow=none;endFill=0;" parent="1" source="TZNe4MVtMT3B7-HgEFiv-6" target="TZNe4MVtMT3B7-HgEFiv-1" edge="1">
          <mxGeometry relative="1" as="geometry" />
        </mxCell>
        <mxCell id="TZNe4MVtMT3B7-HgEFiv-6" value="Endereço" style="ellipse;whiteSpace=wrap;html=1;align=center;fontSize=11;" parent="1" vertex="1">
          <mxGeometry x="680" y="420" width="100" height="40" as="geometry" />
        </mxCell>
        <mxCell id="9DwiZmUM9ChjFVyKQQpv-68" style="edgeStyle=none;rounded=0;orthogonalLoop=1;jettySize=auto;html=1;exitX=0;exitY=0.5;exitDx=0;exitDy=0;entryX=1;entryY=1;entryDx=0;entryDy=0;fontSize=12;endArrow=none;endFill=0;" parent="1" source="TZNe4MVtMT3B7-HgEFiv-7" target="TZNe4MVtMT3B7-HgEFiv-1" edge="1">
          <mxGeometry relative="1" as="geometry" />
        </mxCell>
        <mxCell id="TZNe4MVtMT3B7-HgEFiv-7" value="Telefone" style="ellipse;whiteSpace=wrap;html=1;align=center;fontSize=11;" parent="1" vertex="1">
          <mxGeometry x="680" y="460" width="100" height="40" as="geometry" />
        </mxCell>
        <mxCell id="9DwiZmUM9ChjFVyKQQpv-50" style="edgeStyle=none;rounded=0;orthogonalLoop=1;jettySize=auto;html=1;exitX=0.5;exitY=1;exitDx=0;exitDy=0;entryX=0.5;entryY=0;entryDx=0;entryDy=0;fontSize=12;endArrow=none;endFill=0;" parent="1" source="9DwiZmUM9ChjFVyKQQpv-1" target="9DwiZmUM9ChjFVyKQQpv-51" edge="1">
          <mxGeometry relative="1" as="geometry">
            <mxPoint x="209" y="520" as="targetPoint" />
          </mxGeometry>
        </mxCell>
        <mxCell id="9DwiZmUM9ChjFVyKQQpv-55" value="1" style="edgeLabel;html=1;align=center;verticalAlign=middle;resizable=0;points=[];fontSize=12;labelBackgroundColor=none;" parent="9DwiZmUM9ChjFVyKQQpv-50" vertex="1" connectable="0">
          <mxGeometry x="-0.7473" y="-1" relative="1" as="geometry">
            <mxPoint x="-8" as="offset" />
          </mxGeometry>
        </mxCell>
        <mxCell id="9DwiZmUM9ChjFVyKQQpv-69" value="" style="edgeStyle=none;rounded=0;orthogonalLoop=1;jettySize=auto;html=1;fontSize=12;endArrow=none;endFill=0;" parent="1" source="9DwiZmUM9ChjFVyKQQpv-1" target="9DwiZmUM9ChjFVyKQQpv-51" edge="1">
          <mxGeometry relative="1" as="geometry" />
        </mxCell>
        <mxCell id="9DwiZmUM9ChjFVyKQQpv-1" value="Farmacêutica" style="whiteSpace=wrap;html=1;align=center;fontSize=11;" parent="1" vertex="1">
          <mxGeometry x="208" y="400" width="99" height="40" as="geometry" />
        </mxCell>
        <mxCell id="9DwiZmUM9ChjFVyKQQpv-4" style="rounded=0;orthogonalLoop=1;jettySize=auto;html=1;exitX=1;exitY=0.5;exitDx=0;exitDy=0;entryX=0;entryY=0.25;entryDx=0;entryDy=0;endArrow=none;endFill=0;" parent="1" source="9DwiZmUM9ChjFVyKQQpv-2" target="9DwiZmUM9ChjFVyKQQpv-1" edge="1">
          <mxGeometry relative="1" as="geometry" />
        </mxCell>
        <mxCell id="9DwiZmUM9ChjFVyKQQpv-2" value="Nome" style="ellipse;whiteSpace=wrap;html=1;align=center;fontSize=11;" parent="1" vertex="1">
          <mxGeometry x="100" y="380" width="100" height="40" as="geometry" />
        </mxCell>
        <mxCell id="9DwiZmUM9ChjFVyKQQpv-5" style="edgeStyle=none;rounded=0;orthogonalLoop=1;jettySize=auto;html=1;exitX=1;exitY=0.5;exitDx=0;exitDy=0;entryX=0;entryY=0.75;entryDx=0;entryDy=0;endArrow=none;endFill=0;" parent="1" source="9DwiZmUM9ChjFVyKQQpv-3" target="9DwiZmUM9ChjFVyKQQpv-1" edge="1">
          <mxGeometry relative="1" as="geometry" />
        </mxCell>
        <mxCell id="9DwiZmUM9ChjFVyKQQpv-3" value="Nome" style="ellipse;whiteSpace=wrap;html=1;align=center;fontSize=11;" parent="1" vertex="1">
          <mxGeometry x="100" y="420" width="100" height="40" as="geometry" />
        </mxCell>
        <mxCell id="9DwiZmUM9ChjFVyKQQpv-9" style="edgeStyle=none;rounded=0;orthogonalLoop=1;jettySize=auto;html=1;exitX=1;exitY=0.5;exitDx=0;exitDy=0;entryX=0;entryY=0.25;entryDx=0;entryDy=0;endArrow=none;endFill=0;" parent="1" source="9DwiZmUM9ChjFVyKQQpv-7" target="9DwiZmUM9ChjFVyKQQpv-52" edge="1">
          <mxGeometry relative="1" as="geometry">
            <mxPoint x="160" y="570" as="targetPoint" />
          </mxGeometry>
        </mxCell>
        <mxCell id="9DwiZmUM9ChjFVyKQQpv-7" value="Nome" style="ellipse;shape=doubleEllipse;margin=3;whiteSpace=wrap;html=1;align=center;" parent="1" vertex="1">
          <mxGeometry x="100" y="540" width="100" height="40" as="geometry" />
        </mxCell>
        <mxCell id="9DwiZmUM9ChjFVyKQQpv-10" style="edgeStyle=none;rounded=0;orthogonalLoop=1;jettySize=auto;html=1;exitX=1;exitY=0.5;exitDx=0;exitDy=0;endArrow=none;endFill=0;entryX=0;entryY=0.75;entryDx=0;entryDy=0;" parent="1" source="9DwiZmUM9ChjFVyKQQpv-8" target="9DwiZmUM9ChjFVyKQQpv-52" edge="1">
          <mxGeometry relative="1" as="geometry">
            <mxPoint x="170" y="590" as="targetPoint" />
          </mxGeometry>
        </mxCell>
        <mxCell id="9DwiZmUM9ChjFVyKQQpv-8" value="&lt;u&gt;Fórmula&lt;/u&gt;" style="ellipse;whiteSpace=wrap;html=1;align=center;" parent="1" vertex="1">
          <mxGeometry x="100" y="580" width="100" height="40" as="geometry" />
        </mxCell>
        <mxCell id="9DwiZmUM9ChjFVyKQQpv-40" style="edgeStyle=none;rounded=0;orthogonalLoop=1;jettySize=auto;html=1;exitX=0.5;exitY=1;exitDx=0;exitDy=0;entryX=0.5;entryY=0;entryDx=0;entryDy=0;endArrow=none;endFill=0;" parent="1" source="9DwiZmUM9ChjFVyKQQpv-11" target="9DwiZmUM9ChjFVyKQQpv-36" edge="1">
          <mxGeometry relative="1" as="geometry" />
        </mxCell>
        <mxCell id="9DwiZmUM9ChjFVyKQQpv-43" value="1" style="edgeLabel;html=1;align=center;verticalAlign=middle;resizable=0;points=[];labelBackgroundColor=none;fontSize=12;" parent="9DwiZmUM9ChjFVyKQQpv-40" vertex="1" connectable="0">
          <mxGeometry x="-0.6353" y="1" relative="1" as="geometry">
            <mxPoint x="9" y="-12" as="offset" />
          </mxGeometry>
        </mxCell>
        <mxCell id="9DwiZmUM9ChjFVyKQQpv-11" value="Paciente" style="whiteSpace=wrap;html=1;align=center;fontSize=11;" parent="1" vertex="1">
          <mxGeometry x="209" y="141.18" width="100" height="40" as="geometry" />
        </mxCell>
        <mxCell id="9DwiZmUM9ChjFVyKQQpv-16" style="edgeStyle=none;rounded=0;orthogonalLoop=1;jettySize=auto;html=1;exitX=0;exitY=0.5;exitDx=0;exitDy=0;entryX=0.75;entryY=0;entryDx=0;entryDy=0;endArrow=none;endFill=0;" parent="1" source="9DwiZmUM9ChjFVyKQQpv-12" target="9DwiZmUM9ChjFVyKQQpv-11" edge="1">
          <mxGeometry relative="1" as="geometry" />
        </mxCell>
        <mxCell id="9DwiZmUM9ChjFVyKQQpv-12" value="Nome" style="ellipse;whiteSpace=wrap;html=1;align=center;" parent="1" vertex="1">
          <mxGeometry x="289" y="101.18" width="100" height="40" as="geometry" />
        </mxCell>
        <mxCell id="9DwiZmUM9ChjFVyKQQpv-17" style="edgeStyle=none;rounded=0;orthogonalLoop=1;jettySize=auto;html=1;exitX=0;exitY=1;exitDx=0;exitDy=0;entryX=0.5;entryY=0;entryDx=0;entryDy=0;endArrow=none;endFill=0;" parent="1" source="9DwiZmUM9ChjFVyKQQpv-13" target="9DwiZmUM9ChjFVyKQQpv-11" edge="1">
          <mxGeometry relative="1" as="geometry" />
        </mxCell>
        <mxCell id="9DwiZmUM9ChjFVyKQQpv-13" value="&lt;u&gt;NºSNS&lt;/u&gt;" style="ellipse;whiteSpace=wrap;html=1;align=center;" parent="1" vertex="1">
          <mxGeometry x="259" y="61.18000000000001" width="100" height="40" as="geometry" />
        </mxCell>
        <mxCell id="9DwiZmUM9ChjFVyKQQpv-18" style="edgeStyle=none;rounded=0;orthogonalLoop=1;jettySize=auto;html=1;exitX=1;exitY=1;exitDx=0;exitDy=0;entryX=0.5;entryY=0;entryDx=0;entryDy=0;endArrow=none;endFill=0;" parent="1" source="9DwiZmUM9ChjFVyKQQpv-14" target="9DwiZmUM9ChjFVyKQQpv-11" edge="1">
          <mxGeometry relative="1" as="geometry" />
        </mxCell>
        <mxCell id="9DwiZmUM9ChjFVyKQQpv-14" value="DataNasc" style="ellipse;whiteSpace=wrap;html=1;align=center;" parent="1" vertex="1">
          <mxGeometry x="159" y="61.18000000000001" width="100" height="40" as="geometry" />
        </mxCell>
        <mxCell id="9DwiZmUM9ChjFVyKQQpv-19" style="edgeStyle=none;rounded=0;orthogonalLoop=1;jettySize=auto;html=1;exitX=1;exitY=0.5;exitDx=0;exitDy=0;entryX=0.25;entryY=0;entryDx=0;entryDy=0;endArrow=none;endFill=0;" parent="1" source="9DwiZmUM9ChjFVyKQQpv-15" target="9DwiZmUM9ChjFVyKQQpv-11" edge="1">
          <mxGeometry relative="1" as="geometry" />
        </mxCell>
        <mxCell id="9DwiZmUM9ChjFVyKQQpv-15" value="Endereço" style="ellipse;whiteSpace=wrap;html=1;align=center;" parent="1" vertex="1">
          <mxGeometry x="129" y="100.18" width="100" height="40" as="geometry" />
        </mxCell>
        <mxCell id="9DwiZmUM9ChjFVyKQQpv-25" style="edgeStyle=none;rounded=0;orthogonalLoop=1;jettySize=auto;html=1;exitX=0.25;exitY=0;exitDx=0;exitDy=0;entryX=0.5;entryY=1;entryDx=0;entryDy=0;endArrow=none;endFill=0;" parent="1" source="9DwiZmUM9ChjFVyKQQpv-20" target="9DwiZmUM9ChjFVyKQQpv-21" edge="1">
          <mxGeometry relative="1" as="geometry" />
        </mxCell>
        <mxCell id="9DwiZmUM9ChjFVyKQQpv-38" style="edgeStyle=none;rounded=0;orthogonalLoop=1;jettySize=auto;html=1;exitX=0.5;exitY=1;exitDx=0;exitDy=0;entryX=0.5;entryY=0;entryDx=0;entryDy=0;endArrow=none;endFill=0;" parent="1" source="9DwiZmUM9ChjFVyKQQpv-20" target="9DwiZmUM9ChjFVyKQQpv-37" edge="1">
          <mxGeometry relative="1" as="geometry" />
        </mxCell>
        <mxCell id="9DwiZmUM9ChjFVyKQQpv-47" value="1" style="edgeLabel;html=1;align=center;verticalAlign=middle;resizable=0;points=[];fontSize=12;labelBackgroundColor=none;" parent="9DwiZmUM9ChjFVyKQQpv-38" vertex="1" connectable="0">
          <mxGeometry x="-0.7163" y="-1" relative="1" as="geometry">
            <mxPoint x="9" y="-6" as="offset" />
          </mxGeometry>
        </mxCell>
        <mxCell id="9DwiZmUM9ChjFVyKQQpv-20" value="Médico" style="whiteSpace=wrap;html=1;align=center;fontSize=11;" parent="1" vertex="1">
          <mxGeometry x="541" y="140.1799999999999" width="100" height="40" as="geometry" />
        </mxCell>
        <mxCell id="9DwiZmUM9ChjFVyKQQpv-21" value="&lt;u&gt;ID_SNS&lt;/u&gt;" style="ellipse;whiteSpace=wrap;html=1;align=center;fontSize=11;" parent="1" vertex="1">
          <mxGeometry x="479" y="80" width="100" height="40" as="geometry" />
        </mxCell>
        <mxCell id="9DwiZmUM9ChjFVyKQQpv-26" style="edgeStyle=none;rounded=0;orthogonalLoop=1;jettySize=auto;html=1;exitX=0.5;exitY=1;exitDx=0;exitDy=0;entryX=0.5;entryY=0;entryDx=0;entryDy=0;endArrow=none;endFill=0;" parent="1" source="9DwiZmUM9ChjFVyKQQpv-22" target="9DwiZmUM9ChjFVyKQQpv-20" edge="1">
          <mxGeometry relative="1" as="geometry" />
        </mxCell>
        <mxCell id="9DwiZmUM9ChjFVyKQQpv-22" value="Nome" style="ellipse;whiteSpace=wrap;html=1;align=center;fontSize=11;" parent="1" vertex="1">
          <mxGeometry x="539" y="40" width="100" height="40" as="geometry" />
        </mxCell>
        <mxCell id="9DwiZmUM9ChjFVyKQQpv-27" style="edgeStyle=none;rounded=0;orthogonalLoop=1;jettySize=auto;html=1;exitX=0.5;exitY=1;exitDx=0;exitDy=0;entryX=0.75;entryY=0;entryDx=0;entryDy=0;endArrow=none;endFill=0;" parent="1" source="9DwiZmUM9ChjFVyKQQpv-24" target="9DwiZmUM9ChjFVyKQQpv-20" edge="1">
          <mxGeometry relative="1" as="geometry" />
        </mxCell>
        <mxCell id="9DwiZmUM9ChjFVyKQQpv-24" value="Especialidade" style="ellipse;whiteSpace=wrap;html=1;align=center;fontSize=11;" parent="1" vertex="1">
          <mxGeometry x="599" y="80" width="100" height="40" as="geometry" />
        </mxCell>
        <mxCell id="9DwiZmUM9ChjFVyKQQpv-31" style="edgeStyle=none;rounded=0;orthogonalLoop=1;jettySize=auto;html=1;exitX=0.25;exitY=0;exitDx=0;exitDy=0;entryX=0.5;entryY=1;entryDx=0;entryDy=0;endArrow=none;endFill=0;" parent="1" source="9DwiZmUM9ChjFVyKQQpv-28" target="9DwiZmUM9ChjFVyKQQpv-29" edge="1">
          <mxGeometry relative="1" as="geometry" />
        </mxCell>
        <mxCell id="9DwiZmUM9ChjFVyKQQpv-32" style="edgeStyle=none;rounded=0;orthogonalLoop=1;jettySize=auto;html=1;exitX=0.75;exitY=0;exitDx=0;exitDy=0;entryX=0.5;entryY=1;entryDx=0;entryDy=0;endArrow=none;endFill=0;" parent="1" source="9DwiZmUM9ChjFVyKQQpv-28" target="9DwiZmUM9ChjFVyKQQpv-30" edge="1">
          <mxGeometry relative="1" as="geometry" />
        </mxCell>
        <mxCell id="9DwiZmUM9ChjFVyKQQpv-58" style="edgeStyle=none;rounded=0;orthogonalLoop=1;jettySize=auto;html=1;exitX=0.5;exitY=1;exitDx=0;exitDy=0;entryX=0.5;entryY=0;entryDx=0;entryDy=0;fontSize=12;endArrow=none;endFill=0;" parent="1" source="9DwiZmUM9ChjFVyKQQpv-28" target="9DwiZmUM9ChjFVyKQQpv-57" edge="1">
          <mxGeometry relative="1" as="geometry" />
        </mxCell>
        <mxCell id="9DwiZmUM9ChjFVyKQQpv-59" value="N" style="edgeLabel;html=1;align=center;verticalAlign=middle;resizable=0;points=[];fontSize=12;labelBackgroundColor=none;" parent="9DwiZmUM9ChjFVyKQQpv-58" vertex="1" connectable="0">
          <mxGeometry x="-0.4961" y="1" relative="1" as="geometry">
            <mxPoint x="14" as="offset" />
          </mxGeometry>
        </mxCell>
        <mxCell id="9DwiZmUM9ChjFVyKQQpv-28" value="Prescrição" style="whiteSpace=wrap;html=1;align=center;fontSize=11;" parent="1" vertex="1">
          <mxGeometry x="375" y="301.18" width="100" height="40" as="geometry" />
        </mxCell>
        <mxCell id="9DwiZmUM9ChjFVyKQQpv-29" value="&lt;u&gt;ID&lt;/u&gt;" style="ellipse;whiteSpace=wrap;html=1;align=center;fontSize=11;" parent="1" vertex="1">
          <mxGeometry x="329" y="241.18" width="100" height="40" as="geometry" />
        </mxCell>
        <mxCell id="9DwiZmUM9ChjFVyKQQpv-30" value="Data" style="ellipse;whiteSpace=wrap;html=1;align=center;fontSize=11;" parent="1" vertex="1">
          <mxGeometry x="429" y="241.18" width="100" height="40" as="geometry" />
        </mxCell>
        <mxCell id="9DwiZmUM9ChjFVyKQQpv-36" value="Requisita" style="shape=rhombus;perimeter=rhombusPerimeter;whiteSpace=wrap;html=1;align=center;" parent="1" vertex="1">
          <mxGeometry x="211" y="301.18" width="96" height="40" as="geometry" />
        </mxCell>
        <mxCell id="9DwiZmUM9ChjFVyKQQpv-37" value="Prescreve" style="shape=rhombus;perimeter=rhombusPerimeter;whiteSpace=wrap;html=1;align=center;" parent="1" vertex="1">
          <mxGeometry x="543" y="301.18" width="96" height="40" as="geometry" />
        </mxCell>
        <mxCell id="9DwiZmUM9ChjFVyKQQpv-41" value="" style="shape=link;html=1;rounded=0;endArrow=none;endFill=0;exitX=1;exitY=0.5;exitDx=0;exitDy=0;entryX=0;entryY=0.5;entryDx=0;entryDy=0;" parent="1" source="9DwiZmUM9ChjFVyKQQpv-36" target="9DwiZmUM9ChjFVyKQQpv-28" edge="1">
          <mxGeometry relative="1" as="geometry">
            <mxPoint x="409" y="251.18" as="sourcePoint" />
            <mxPoint x="569" y="251.18" as="targetPoint" />
          </mxGeometry>
        </mxCell>
        <mxCell id="9DwiZmUM9ChjFVyKQQpv-42" value="N" style="resizable=0;html=1;align=right;verticalAlign=bottom;" parent="9DwiZmUM9ChjFVyKQQpv-41" connectable="0" vertex="1">
          <mxGeometry x="1" relative="1" as="geometry">
            <mxPoint x="-6" as="offset" />
          </mxGeometry>
        </mxCell>
        <mxCell id="9DwiZmUM9ChjFVyKQQpv-45" value="" style="shape=link;html=1;rounded=0;endArrow=none;endFill=0;exitX=0;exitY=0.5;exitDx=0;exitDy=0;entryX=1;entryY=0.5;entryDx=0;entryDy=0;" parent="1" source="9DwiZmUM9ChjFVyKQQpv-37" target="9DwiZmUM9ChjFVyKQQpv-28" edge="1">
          <mxGeometry relative="1" as="geometry">
            <mxPoint x="509" y="381.18000000000023" as="sourcePoint" />
            <mxPoint x="577" y="381.18000000000023" as="targetPoint" />
          </mxGeometry>
        </mxCell>
        <mxCell id="9DwiZmUM9ChjFVyKQQpv-46" value="N" style="resizable=0;html=1;align=right;verticalAlign=bottom;" parent="9DwiZmUM9ChjFVyKQQpv-45" connectable="0" vertex="1">
          <mxGeometry x="1" relative="1" as="geometry">
            <mxPoint x="14" as="offset" />
          </mxGeometry>
        </mxCell>
        <mxCell id="9DwiZmUM9ChjFVyKQQpv-51" value="Produz" style="shape=rhombus;double=1;perimeter=rhombusPerimeter;whiteSpace=wrap;html=1;align=center;labelBackgroundColor=none;fontSize=12;" parent="1" vertex="1">
          <mxGeometry x="207" y="480" width="100" height="40" as="geometry" />
        </mxCell>
        <mxCell id="9DwiZmUM9ChjFVyKQQpv-52" value="Fármaco" style="shape=ext;margin=3;double=1;whiteSpace=wrap;html=1;align=center;labelBackgroundColor=none;fontSize=12;" parent="1" vertex="1">
          <mxGeometry x="207" y="560" width="100" height="40" as="geometry" />
        </mxCell>
        <mxCell id="9DwiZmUM9ChjFVyKQQpv-53" value="" style="shape=link;html=1;rounded=0;fontSize=12;endArrow=none;endFill=0;exitX=0.5;exitY=1;exitDx=0;exitDy=0;entryX=0.5;entryY=0;entryDx=0;entryDy=0;" parent="1" source="9DwiZmUM9ChjFVyKQQpv-51" target="9DwiZmUM9ChjFVyKQQpv-52" edge="1">
          <mxGeometry relative="1" as="geometry">
            <mxPoint x="250" y="600" as="sourcePoint" />
            <mxPoint x="410" y="600" as="targetPoint" />
          </mxGeometry>
        </mxCell>
        <mxCell id="9DwiZmUM9ChjFVyKQQpv-54" value="N" style="resizable=0;html=1;align=right;verticalAlign=bottom;labelBackgroundColor=none;fontSize=12;" parent="9DwiZmUM9ChjFVyKQQpv-53" connectable="0" vertex="1">
          <mxGeometry x="1" relative="1" as="geometry">
            <mxPoint x="-10" as="offset" />
          </mxGeometry>
        </mxCell>
        <mxCell id="9DwiZmUM9ChjFVyKQQpv-60" style="edgeStyle=none;rounded=0;orthogonalLoop=1;jettySize=auto;html=1;exitX=1;exitY=0.5;exitDx=0;exitDy=0;entryX=0;entryY=0.5;entryDx=0;entryDy=0;fontSize=12;endArrow=none;endFill=0;" parent="1" source="9DwiZmUM9ChjFVyKQQpv-57" target="TZNe4MVtMT3B7-HgEFiv-1" edge="1">
          <mxGeometry relative="1" as="geometry" />
        </mxCell>
        <mxCell id="9DwiZmUM9ChjFVyKQQpv-61" value="1" style="edgeLabel;html=1;align=center;verticalAlign=middle;resizable=0;points=[];fontSize=12;labelBackgroundColor=none;" parent="9DwiZmUM9ChjFVyKQQpv-60" vertex="1" connectable="0">
          <mxGeometry x="0.4567" y="-2" relative="1" as="geometry">
            <mxPoint x="6" y="-12" as="offset" />
          </mxGeometry>
        </mxCell>
        <mxCell id="9DwiZmUM9ChjFVyKQQpv-63" style="edgeStyle=none;rounded=0;orthogonalLoop=1;jettySize=auto;html=1;exitX=0.5;exitY=1;exitDx=0;exitDy=0;entryX=0.5;entryY=0;entryDx=0;entryDy=0;fontSize=12;endArrow=none;endFill=0;" parent="1" source="9DwiZmUM9ChjFVyKQQpv-57" target="9DwiZmUM9ChjFVyKQQpv-62" edge="1">
          <mxGeometry relative="1" as="geometry" />
        </mxCell>
        <mxCell id="9DwiZmUM9ChjFVyKQQpv-57" value="Processada" style="shape=rhombus;perimeter=rhombusPerimeter;whiteSpace=wrap;html=1;align=center;" parent="1" vertex="1">
          <mxGeometry x="377" y="400" width="96" height="40" as="geometry" />
        </mxCell>
        <mxCell id="9DwiZmUM9ChjFVyKQQpv-62" value="Data" style="ellipse;whiteSpace=wrap;html=1;align=center;fontSize=11;" parent="1" vertex="1">
          <mxGeometry x="375" y="460" width="100" height="40" as="geometry" />
        </mxCell>
        <mxCell id="9DwiZmUM9ChjFVyKQQpv-74" style="edgeStyle=none;rounded=0;orthogonalLoop=1;jettySize=auto;html=1;exitX=0;exitY=0.5;exitDx=0;exitDy=0;entryX=1;entryY=0.5;entryDx=0;entryDy=0;fontSize=12;endArrow=none;endFill=0;" parent="1" source="9DwiZmUM9ChjFVyKQQpv-70" target="9DwiZmUM9ChjFVyKQQpv-52" edge="1">
          <mxGeometry relative="1" as="geometry" />
        </mxCell>
        <mxCell id="9DwiZmUM9ChjFVyKQQpv-75" value="N" style="edgeLabel;html=1;align=center;verticalAlign=middle;resizable=0;points=[];fontSize=12;labelBackgroundColor=none;" parent="9DwiZmUM9ChjFVyKQQpv-74" vertex="1" connectable="0">
          <mxGeometry x="0.7599" y="-1" relative="1" as="geometry">
            <mxPoint x="-15" y="-9" as="offset" />
          </mxGeometry>
        </mxCell>
        <mxCell id="9DwiZmUM9ChjFVyKQQpv-70" value="Vende" style="shape=rhombus;perimeter=rhombusPerimeter;whiteSpace=wrap;html=1;align=center;" parent="1" vertex="1">
          <mxGeometry x="543" y="560" width="96" height="40" as="geometry" />
        </mxCell>
      </root>
    </mxGraphModel>
  </diagram>
  <diagram id="BDWNFqTQyYfmyYrIk4GN" name="2.3">
    <mxGraphModel dx="1422" dy="758" grid="1" gridSize="10" guides="1" tooltips="1" connect="1" arrows="1" fold="1" page="1" pageScale="1" pageWidth="827" pageHeight="1169" math="0" shadow="0">
      <root>
        <mxCell id="0" />
        <mxCell id="1" parent="0" />
        <mxCell id="v29AFDvuFwffxAZ734mm-6" style="rounded=0;orthogonalLoop=1;jettySize=auto;html=1;exitX=1;exitY=0.5;exitDx=0;exitDy=0;entryX=0;entryY=0.25;entryDx=0;entryDy=0;endArrow=none;endFill=0;" edge="1" parent="1" source="v29AFDvuFwffxAZ734mm-3" target="v29AFDvuFwffxAZ734mm-10">
          <mxGeometry relative="1" as="geometry">
            <mxPoint x="160" y="90" as="targetPoint" />
          </mxGeometry>
        </mxCell>
        <mxCell id="v29AFDvuFwffxAZ734mm-3" value="Título" style="ellipse;whiteSpace=wrap;html=1;align=center;" vertex="1" parent="1">
          <mxGeometry x="40" y="60" width="100" height="40" as="geometry" />
        </mxCell>
        <mxCell id="v29AFDvuFwffxAZ734mm-7" style="edgeStyle=none;rounded=0;orthogonalLoop=1;jettySize=auto;html=1;exitX=1;exitY=0.5;exitDx=0;exitDy=0;entryX=0;entryY=0.75;entryDx=0;entryDy=0;endArrow=none;endFill=0;" edge="1" parent="1" source="v29AFDvuFwffxAZ734mm-4" target="v29AFDvuFwffxAZ734mm-10">
          <mxGeometry relative="1" as="geometry">
            <mxPoint x="160" y="110" as="targetPoint" />
          </mxGeometry>
        </mxCell>
        <mxCell id="v29AFDvuFwffxAZ734mm-4" value="&lt;u&gt;Número&lt;/u&gt;" style="ellipse;whiteSpace=wrap;html=1;align=center;" vertex="1" parent="1">
          <mxGeometry x="40" y="100" width="100" height="40" as="geometry" />
        </mxCell>
        <mxCell id="58Is3Ojo0gbrzkN19IPx-54" style="edgeStyle=none;rounded=0;orthogonalLoop=1;jettySize=auto;html=1;exitX=0.5;exitY=1;exitDx=0;exitDy=0;entryX=0.5;entryY=0;entryDx=0;entryDy=0;fontSize=12;endArrow=none;endFill=0;" edge="1" parent="1" source="v29AFDvuFwffxAZ734mm-8" target="58Is3Ojo0gbrzkN19IPx-49">
          <mxGeometry relative="1" as="geometry" />
        </mxCell>
        <mxCell id="58Is3Ojo0gbrzkN19IPx-55" value="1" style="edgeLabel;html=1;align=center;verticalAlign=middle;resizable=0;points=[];fontSize=12;" vertex="1" connectable="0" parent="58Is3Ojo0gbrzkN19IPx-54">
          <mxGeometry x="-0.45" y="1" relative="1" as="geometry">
            <mxPoint x="9" y="-12" as="offset" />
          </mxGeometry>
        </mxCell>
        <mxCell id="v29AFDvuFwffxAZ734mm-8" value="Conferência" style="whiteSpace=wrap;html=1;align=center;" vertex="1" parent="1">
          <mxGeometry x="480" y="80" width="100" height="40" as="geometry" />
        </mxCell>
        <mxCell id="v29AFDvuFwffxAZ734mm-19" value="M" style="edgeStyle=none;rounded=0;orthogonalLoop=1;jettySize=auto;html=1;exitX=0.5;exitY=0;exitDx=0;exitDy=0;entryX=0.5;entryY=1;entryDx=0;entryDy=0;endArrow=none;endFill=0;" edge="1" parent="1" source="v29AFDvuFwffxAZ734mm-9" target="v29AFDvuFwffxAZ734mm-17">
          <mxGeometry x="-0.75" y="-10" relative="1" as="geometry">
            <mxPoint as="offset" />
          </mxGeometry>
        </mxCell>
        <mxCell id="v29AFDvuFwffxAZ734mm-27" style="edgeStyle=none;rounded=0;orthogonalLoop=1;jettySize=auto;html=1;exitX=0.5;exitY=1;exitDx=0;exitDy=0;entryX=0.5;entryY=0;entryDx=0;entryDy=0;endArrow=none;endFill=0;" edge="1" parent="1" source="58Is3Ojo0gbrzkN19IPx-76" target="58Is3Ojo0gbrzkN19IPx-68">
          <mxGeometry relative="1" as="geometry">
            <mxPoint x="210" y="440" as="targetPoint" />
          </mxGeometry>
        </mxCell>
        <mxCell id="v29AFDvuFwffxAZ734mm-32" value="N" style="edgeLabel;html=1;align=center;verticalAlign=middle;resizable=0;points=[];" vertex="1" connectable="0" parent="v29AFDvuFwffxAZ734mm-27">
          <mxGeometry x="-0.5091" y="-1" relative="1" as="geometry">
            <mxPoint x="11" as="offset" />
          </mxGeometry>
        </mxCell>
        <mxCell id="v29AFDvuFwffxAZ734mm-9" value="Autor" style="whiteSpace=wrap;html=1;align=center;" vertex="1" parent="1">
          <mxGeometry x="160" y="280" width="100" height="40" as="geometry" />
        </mxCell>
        <mxCell id="v29AFDvuFwffxAZ734mm-18" value="N" style="edgeStyle=none;rounded=0;orthogonalLoop=1;jettySize=auto;html=1;exitX=0.5;exitY=1;exitDx=0;exitDy=0;entryX=0.5;entryY=0;entryDx=0;entryDy=0;endArrow=none;endFill=0;shape=link;" edge="1" parent="1" source="v29AFDvuFwffxAZ734mm-10" target="v29AFDvuFwffxAZ734mm-17">
          <mxGeometry x="-0.75" y="10" relative="1" as="geometry">
            <mxPoint as="offset" />
          </mxGeometry>
        </mxCell>
        <mxCell id="v29AFDvuFwffxAZ734mm-41" style="edgeStyle=none;rounded=0;orthogonalLoop=1;jettySize=auto;html=1;exitX=1;exitY=0.5;exitDx=0;exitDy=0;entryX=0;entryY=0.5;entryDx=0;entryDy=0;endArrow=none;endFill=0;" edge="1" parent="1" source="v29AFDvuFwffxAZ734mm-10" target="v29AFDvuFwffxAZ734mm-40">
          <mxGeometry relative="1" as="geometry" />
        </mxCell>
        <mxCell id="v29AFDvuFwffxAZ734mm-44" value="M" style="edgeLabel;html=1;align=center;verticalAlign=middle;resizable=0;points=[];" vertex="1" connectable="0" parent="v29AFDvuFwffxAZ734mm-41">
          <mxGeometry x="-0.7063" relative="1" as="geometry">
            <mxPoint y="-10" as="offset" />
          </mxGeometry>
        </mxCell>
        <mxCell id="v29AFDvuFwffxAZ734mm-10" value="Artigo" style="shape=ext;margin=3;double=1;whiteSpace=wrap;html=1;align=center;" vertex="1" parent="1">
          <mxGeometry x="160" y="80" width="100" height="40" as="geometry" />
        </mxCell>
        <mxCell id="v29AFDvuFwffxAZ734mm-14" style="edgeStyle=none;rounded=0;orthogonalLoop=1;jettySize=auto;html=1;exitX=1;exitY=0.5;exitDx=0;exitDy=0;entryX=0;entryY=0.25;entryDx=0;entryDy=0;endArrow=none;endFill=0;" edge="1" parent="1" source="v29AFDvuFwffxAZ734mm-11" target="v29AFDvuFwffxAZ734mm-9">
          <mxGeometry relative="1" as="geometry" />
        </mxCell>
        <mxCell id="v29AFDvuFwffxAZ734mm-11" value="Nome" style="ellipse;whiteSpace=wrap;html=1;align=center;" vertex="1" parent="1">
          <mxGeometry x="40" y="260" width="100" height="40" as="geometry" />
        </mxCell>
        <mxCell id="v29AFDvuFwffxAZ734mm-15" style="edgeStyle=none;rounded=0;orthogonalLoop=1;jettySize=auto;html=1;exitX=1;exitY=0.5;exitDx=0;exitDy=0;entryX=0;entryY=0.75;entryDx=0;entryDy=0;endArrow=none;endFill=0;" edge="1" parent="1" source="v29AFDvuFwffxAZ734mm-12" target="v29AFDvuFwffxAZ734mm-9">
          <mxGeometry relative="1" as="geometry" />
        </mxCell>
        <mxCell id="v29AFDvuFwffxAZ734mm-12" value="&lt;u&gt;Email&lt;/u&gt;" style="ellipse;whiteSpace=wrap;html=1;align=center;" vertex="1" parent="1">
          <mxGeometry x="40" y="300" width="100" height="40" as="geometry" />
        </mxCell>
        <mxCell id="v29AFDvuFwffxAZ734mm-17" value="Redige" style="shape=rhombus;double=1;perimeter=rhombusPerimeter;whiteSpace=wrap;html=1;align=center;" vertex="1" parent="1">
          <mxGeometry x="160" y="180" width="100" height="40" as="geometry" />
        </mxCell>
        <mxCell id="v29AFDvuFwffxAZ734mm-24" style="edgeStyle=none;rounded=0;orthogonalLoop=1;jettySize=auto;html=1;exitX=1;exitY=0.25;exitDx=0;exitDy=0;entryX=0;entryY=0.5;entryDx=0;entryDy=0;endArrow=none;endFill=0;" edge="1" parent="1" source="v29AFDvuFwffxAZ734mm-20" target="v29AFDvuFwffxAZ734mm-22">
          <mxGeometry relative="1" as="geometry" />
        </mxCell>
        <mxCell id="v29AFDvuFwffxAZ734mm-25" style="edgeStyle=none;rounded=0;orthogonalLoop=1;jettySize=auto;html=1;exitX=1;exitY=0.75;exitDx=0;exitDy=0;entryX=0;entryY=0.5;entryDx=0;entryDy=0;endArrow=none;endFill=0;" edge="1" parent="1" source="v29AFDvuFwffxAZ734mm-20" target="v29AFDvuFwffxAZ734mm-23">
          <mxGeometry relative="1" as="geometry" />
        </mxCell>
        <mxCell id="v29AFDvuFwffxAZ734mm-20" value="Instituição" style="whiteSpace=wrap;html=1;align=center;" vertex="1" parent="1">
          <mxGeometry x="300" y="520" width="100" height="40" as="geometry" />
        </mxCell>
        <mxCell id="v29AFDvuFwffxAZ734mm-22" value="Nome" style="ellipse;whiteSpace=wrap;html=1;align=center;" vertex="1" parent="1">
          <mxGeometry x="410" y="500" width="100" height="40" as="geometry" />
        </mxCell>
        <mxCell id="v29AFDvuFwffxAZ734mm-23" value="Endereço" style="ellipse;whiteSpace=wrap;html=1;align=center;" vertex="1" parent="1">
          <mxGeometry x="410" y="540" width="100" height="40" as="geometry" />
        </mxCell>
        <mxCell id="v29AFDvuFwffxAZ734mm-34" style="edgeStyle=none;rounded=0;orthogonalLoop=1;jettySize=auto;html=1;exitX=0;exitY=0.5;exitDx=0;exitDy=0;entryX=1;entryY=0;entryDx=0;entryDy=0;endArrow=none;endFill=0;" edge="1" parent="1" source="v29AFDvuFwffxAZ734mm-33" target="v29AFDvuFwffxAZ734mm-8">
          <mxGeometry relative="1" as="geometry" />
        </mxCell>
        <mxCell id="v29AFDvuFwffxAZ734mm-33" value="&lt;u&gt;Nome&lt;/u&gt;" style="ellipse;whiteSpace=wrap;html=1;align=center;" vertex="1" parent="1">
          <mxGeometry x="610" y="40" width="100" height="40" as="geometry" />
        </mxCell>
        <mxCell id="v29AFDvuFwffxAZ734mm-37" style="edgeStyle=none;rounded=0;orthogonalLoop=1;jettySize=auto;html=1;exitX=0;exitY=0.5;exitDx=0;exitDy=0;entryX=1;entryY=0.5;entryDx=0;entryDy=0;endArrow=none;endFill=0;" edge="1" parent="1" source="v29AFDvuFwffxAZ734mm-35" target="v29AFDvuFwffxAZ734mm-8">
          <mxGeometry relative="1" as="geometry" />
        </mxCell>
        <mxCell id="v29AFDvuFwffxAZ734mm-35" value="&lt;u&gt;Data&lt;/u&gt;" style="ellipse;whiteSpace=wrap;html=1;align=center;" vertex="1" parent="1">
          <mxGeometry x="610" y="80" width="100" height="40" as="geometry" />
        </mxCell>
        <mxCell id="v29AFDvuFwffxAZ734mm-38" style="edgeStyle=none;rounded=0;orthogonalLoop=1;jettySize=auto;html=1;exitX=0;exitY=0.5;exitDx=0;exitDy=0;entryX=1;entryY=1;entryDx=0;entryDy=0;endArrow=none;endFill=0;" edge="1" parent="1" source="v29AFDvuFwffxAZ734mm-36" target="v29AFDvuFwffxAZ734mm-8">
          <mxGeometry relative="1" as="geometry" />
        </mxCell>
        <mxCell id="v29AFDvuFwffxAZ734mm-36" value="Local" style="ellipse;whiteSpace=wrap;html=1;align=center;" vertex="1" parent="1">
          <mxGeometry x="610" y="120" width="100" height="40" as="geometry" />
        </mxCell>
        <mxCell id="v29AFDvuFwffxAZ734mm-42" style="edgeStyle=none;rounded=0;orthogonalLoop=1;jettySize=auto;html=1;exitX=1;exitY=0.5;exitDx=0;exitDy=0;entryX=0;entryY=0.5;entryDx=0;entryDy=0;endArrow=none;endFill=0;" edge="1" parent="1" source="v29AFDvuFwffxAZ734mm-40" target="v29AFDvuFwffxAZ734mm-8">
          <mxGeometry relative="1" as="geometry" />
        </mxCell>
        <mxCell id="v29AFDvuFwffxAZ734mm-43" value="N" style="edgeLabel;html=1;align=center;verticalAlign=middle;resizable=0;points=[];" vertex="1" connectable="0" parent="v29AFDvuFwffxAZ734mm-42">
          <mxGeometry x="0.2707" relative="1" as="geometry">
            <mxPoint x="33" y="-10" as="offset" />
          </mxGeometry>
        </mxCell>
        <mxCell id="v29AFDvuFwffxAZ734mm-40" value="Apresentado" style="shape=rhombus;perimeter=rhombusPerimeter;whiteSpace=wrap;html=1;align=center;" vertex="1" parent="1">
          <mxGeometry x="330" y="80" width="100" height="40" as="geometry" />
        </mxCell>
        <mxCell id="58Is3Ojo0gbrzkN19IPx-14" value="&lt;i&gt;disjoint&lt;/i&gt;" style="text;html=1;align=center;verticalAlign=middle;resizable=0;points=[];autosize=1;strokeColor=none;fillColor=none;" vertex="1" parent="1">
          <mxGeometry x="555" y="380" width="50" height="20" as="geometry" />
        </mxCell>
        <mxCell id="58Is3Ojo0gbrzkN19IPx-15" value="Estudante" style="whiteSpace=wrap;html=1;align=center;" vertex="1" parent="1">
          <mxGeometry x="590" y="440" width="100" height="40" as="geometry" />
        </mxCell>
        <mxCell id="58Is3Ojo0gbrzkN19IPx-16" value="Não Estudante" style="whiteSpace=wrap;html=1;align=center;" vertex="1" parent="1">
          <mxGeometry x="480" y="440" width="100" height="40" as="geometry" />
        </mxCell>
        <mxCell id="58Is3Ojo0gbrzkN19IPx-50" value="N" style="edgeStyle=none;rounded=0;orthogonalLoop=1;jettySize=auto;html=1;exitX=0.5;exitY=1;exitDx=0;exitDy=0;entryX=0.5;entryY=0;entryDx=0;entryDy=0;fontSize=12;endArrow=none;endFill=0;shape=link;" edge="1" parent="1" source="58Is3Ojo0gbrzkN19IPx-49" target="58Is3Ojo0gbrzkN19IPx-51">
          <mxGeometry x="0.75" y="10" relative="1" as="geometry">
            <mxPoint x="530" y="320" as="targetPoint" />
            <mxPoint as="offset" />
          </mxGeometry>
        </mxCell>
        <mxCell id="58Is3Ojo0gbrzkN19IPx-57" style="edgeStyle=none;rounded=0;orthogonalLoop=1;jettySize=auto;html=1;exitX=1;exitY=0.5;exitDx=0;exitDy=0;entryX=0;entryY=0.5;entryDx=0;entryDy=0;fontSize=12;endArrow=none;endFill=0;" edge="1" parent="1" source="58Is3Ojo0gbrzkN19IPx-49" target="58Is3Ojo0gbrzkN19IPx-56">
          <mxGeometry relative="1" as="geometry" />
        </mxCell>
        <mxCell id="58Is3Ojo0gbrzkN19IPx-49" value="Frequenta" style="shape=rhombus;double=1;perimeter=rhombusPerimeter;whiteSpace=wrap;html=1;align=center;" vertex="1" parent="1">
          <mxGeometry x="480" y="180" width="100" height="40" as="geometry" />
        </mxCell>
        <mxCell id="58Is3Ojo0gbrzkN19IPx-61" style="edgeStyle=none;rounded=0;orthogonalLoop=1;jettySize=auto;html=1;exitX=0.5;exitY=1;exitDx=0;exitDy=0;entryX=0;entryY=0;entryDx=25;entryDy=0;entryPerimeter=0;fontSize=12;endArrow=none;endFill=0;shape=link;" edge="1" parent="1" source="58Is3Ojo0gbrzkN19IPx-51" target="58Is3Ojo0gbrzkN19IPx-58">
          <mxGeometry relative="1" as="geometry" />
        </mxCell>
        <mxCell id="58Is3Ojo0gbrzkN19IPx-63" style="edgeStyle=none;rounded=0;orthogonalLoop=1;jettySize=auto;html=1;exitX=1;exitY=0;exitDx=0;exitDy=0;entryX=0;entryY=0.5;entryDx=0;entryDy=0;fontSize=12;endArrow=none;endFill=0;" edge="1" parent="1" source="58Is3Ojo0gbrzkN19IPx-51" target="58Is3Ojo0gbrzkN19IPx-62">
          <mxGeometry relative="1" as="geometry" />
        </mxCell>
        <mxCell id="58Is3Ojo0gbrzkN19IPx-65" style="edgeStyle=none;rounded=0;orthogonalLoop=1;jettySize=auto;html=1;exitX=1;exitY=0.25;exitDx=0;exitDy=0;entryX=0;entryY=1;entryDx=0;entryDy=0;fontSize=12;endArrow=none;endFill=0;" edge="1" parent="1" source="58Is3Ojo0gbrzkN19IPx-51" target="58Is3Ojo0gbrzkN19IPx-64">
          <mxGeometry relative="1" as="geometry" />
        </mxCell>
        <mxCell id="58Is3Ojo0gbrzkN19IPx-67" style="edgeStyle=none;rounded=0;orthogonalLoop=1;jettySize=auto;html=1;exitX=1;exitY=0.75;exitDx=0;exitDy=0;entryX=0;entryY=0;entryDx=0;entryDy=0;fontSize=12;endArrow=none;endFill=0;" edge="1" parent="1" source="58Is3Ojo0gbrzkN19IPx-51" target="58Is3Ojo0gbrzkN19IPx-66">
          <mxGeometry relative="1" as="geometry" />
        </mxCell>
        <mxCell id="58Is3Ojo0gbrzkN19IPx-51" value="Participante" style="shape=ext;margin=3;double=1;whiteSpace=wrap;html=1;align=center;fontSize=12;" vertex="1" parent="1">
          <mxGeometry x="480" y="280" width="100" height="40" as="geometry" />
        </mxCell>
        <mxCell id="58Is3Ojo0gbrzkN19IPx-53" style="edgeStyle=none;rounded=0;orthogonalLoop=1;jettySize=auto;html=1;exitX=1;exitY=0.5;exitDx=0;exitDy=0;entryX=0;entryY=0.5;entryDx=0;entryDy=0;fontSize=12;endArrow=none;endFill=0;" edge="1" parent="1" source="58Is3Ojo0gbrzkN19IPx-52" target="58Is3Ojo0gbrzkN19IPx-49">
          <mxGeometry relative="1" as="geometry" />
        </mxCell>
        <mxCell id="58Is3Ojo0gbrzkN19IPx-52" value="Comprovativo&lt;br&gt;pagamento" style="ellipse;whiteSpace=wrap;html=1;align=center;dashed=1;fontSize=12;" vertex="1" parent="1">
          <mxGeometry x="370" y="180" width="100" height="40" as="geometry" />
        </mxCell>
        <mxCell id="58Is3Ojo0gbrzkN19IPx-56" value="Comprovativo&lt;br&gt;isenção" style="ellipse;whiteSpace=wrap;html=1;align=center;dashed=1;fontSize=12;" vertex="1" parent="1">
          <mxGeometry x="590" y="180" width="100" height="40" as="geometry" />
        </mxCell>
        <mxCell id="58Is3Ojo0gbrzkN19IPx-59" style="edgeStyle=none;rounded=0;orthogonalLoop=1;jettySize=auto;html=1;exitX=0.5;exitY=1;exitDx=0;exitDy=0;exitPerimeter=0;entryX=0.5;entryY=0;entryDx=0;entryDy=0;fontSize=12;endArrow=none;endFill=0;" edge="1" parent="1" source="58Is3Ojo0gbrzkN19IPx-58" target="58Is3Ojo0gbrzkN19IPx-16">
          <mxGeometry relative="1" as="geometry" />
        </mxCell>
        <mxCell id="58Is3Ojo0gbrzkN19IPx-60" style="edgeStyle=none;rounded=0;orthogonalLoop=1;jettySize=auto;html=1;exitX=0.5;exitY=1;exitDx=0;exitDy=0;exitPerimeter=0;entryX=0;entryY=0;entryDx=0;entryDy=0;fontSize=12;endArrow=none;endFill=0;" edge="1" parent="1" source="58Is3Ojo0gbrzkN19IPx-58" target="58Is3Ojo0gbrzkN19IPx-15">
          <mxGeometry relative="1" as="geometry" />
        </mxCell>
        <mxCell id="58Is3Ojo0gbrzkN19IPx-58" value="IS-A" style="verticalLabelPosition=bottom;verticalAlign=top;html=1;shape=mxgraph.basic.acute_triangle;dx=0.5;fontSize=12;spacing=-30;" vertex="1" parent="1">
          <mxGeometry x="505" y="360" width="50" height="40" as="geometry" />
        </mxCell>
        <mxCell id="58Is3Ojo0gbrzkN19IPx-62" value="Nome" style="ellipse;whiteSpace=wrap;html=1;align=center;" vertex="1" parent="1">
          <mxGeometry x="600" y="240" width="100" height="40" as="geometry" />
        </mxCell>
        <mxCell id="58Is3Ojo0gbrzkN19IPx-64" value="Endereço" style="ellipse;whiteSpace=wrap;html=1;align=center;" vertex="1" parent="1">
          <mxGeometry x="700" y="260" width="100" height="40" as="geometry" />
        </mxCell>
        <mxCell id="58Is3Ojo0gbrzkN19IPx-66" value="&lt;u&gt;Email&lt;/u&gt;" style="ellipse;whiteSpace=wrap;html=1;align=center;" vertex="1" parent="1">
          <mxGeometry x="700" y="300" width="100" height="40" as="geometry" />
        </mxCell>
        <mxCell id="58Is3Ojo0gbrzkN19IPx-70" style="edgeStyle=none;rounded=0;orthogonalLoop=1;jettySize=auto;html=1;exitX=1;exitY=0.5;exitDx=0;exitDy=0;entryX=0;entryY=0.5;entryDx=0;entryDy=0;fontSize=12;endArrow=none;endFill=0;" edge="1" parent="1" source="58Is3Ojo0gbrzkN19IPx-68" target="v29AFDvuFwffxAZ734mm-20">
          <mxGeometry relative="1" as="geometry" />
        </mxCell>
        <mxCell id="58Is3Ojo0gbrzkN19IPx-72" value="1" style="edgeLabel;html=1;align=center;verticalAlign=middle;resizable=0;points=[];fontSize=12;" vertex="1" connectable="0" parent="58Is3Ojo0gbrzkN19IPx-70">
          <mxGeometry x="0.6154" y="-2" relative="1" as="geometry">
            <mxPoint x="2" y="-12" as="offset" />
          </mxGeometry>
        </mxCell>
        <mxCell id="58Is3Ojo0gbrzkN19IPx-68" value="Pertence" style="shape=rhombus;perimeter=rhombusPerimeter;whiteSpace=wrap;html=1;align=center;" vertex="1" parent="1">
          <mxGeometry x="160" y="520" width="100" height="40" as="geometry" />
        </mxCell>
        <mxCell id="58Is3Ojo0gbrzkN19IPx-73" style="edgeStyle=none;rounded=0;orthogonalLoop=1;jettySize=auto;html=1;exitX=0;exitY=0.5;exitDx=0;exitDy=0;fontSize=12;endArrow=none;endFill=0;" edge="1" parent="1" source="58Is3Ojo0gbrzkN19IPx-68" target="58Is3Ojo0gbrzkN19IPx-68">
          <mxGeometry relative="1" as="geometry" />
        </mxCell>
        <mxCell id="58Is3Ojo0gbrzkN19IPx-75" style="edgeStyle=none;rounded=0;orthogonalLoop=1;jettySize=auto;html=1;exitX=0;exitY=0.5;exitDx=0;exitDy=0;entryX=1;entryY=1;entryDx=0;entryDy=0;fontSize=12;endArrow=none;endFill=0;" edge="1" parent="1" source="58Is3Ojo0gbrzkN19IPx-74" target="58Is3Ojo0gbrzkN19IPx-51">
          <mxGeometry relative="1" as="geometry" />
        </mxCell>
        <mxCell id="58Is3Ojo0gbrzkN19IPx-74" value="Data Inscrição" style="ellipse;whiteSpace=wrap;html=1;align=center;labelBackgroundColor=none;fontSize=12;" vertex="1" parent="1">
          <mxGeometry x="600" y="320" width="100" height="40" as="geometry" />
        </mxCell>
        <mxCell id="58Is3Ojo0gbrzkN19IPx-79" style="edgeStyle=none;rounded=0;orthogonalLoop=1;jettySize=auto;html=1;exitX=0.5;exitY=0;exitDx=0;exitDy=0;entryX=0;entryY=0;entryDx=25;entryDy=0;entryPerimeter=0;fontSize=12;endArrow=none;endFill=0;" edge="1" parent="1" source="58Is3Ojo0gbrzkN19IPx-76" target="58Is3Ojo0gbrzkN19IPx-78">
          <mxGeometry relative="1" as="geometry" />
        </mxCell>
        <mxCell id="58Is3Ojo0gbrzkN19IPx-76" value="Pessoa" style="whiteSpace=wrap;html=1;align=center;labelBackgroundColor=none;fontSize=12;" vertex="1" parent="1">
          <mxGeometry x="160" y="440" width="100" height="40" as="geometry" />
        </mxCell>
        <mxCell id="58Is3Ojo0gbrzkN19IPx-80" style="edgeStyle=none;rounded=0;orthogonalLoop=1;jettySize=auto;html=1;exitX=0.5;exitY=1;exitDx=0;exitDy=0;exitPerimeter=0;entryX=0.5;entryY=1;entryDx=0;entryDy=0;fontSize=12;endArrow=none;endFill=0;" edge="1" parent="1" source="58Is3Ojo0gbrzkN19IPx-78" target="v29AFDvuFwffxAZ734mm-9">
          <mxGeometry relative="1" as="geometry" />
        </mxCell>
        <mxCell id="58Is3Ojo0gbrzkN19IPx-81" style="edgeStyle=none;rounded=0;orthogonalLoop=1;jettySize=auto;html=1;exitX=0;exitY=1;exitDx=0;exitDy=0;exitPerimeter=0;entryX=0;entryY=1;entryDx=0;entryDy=0;fontSize=12;endArrow=none;endFill=0;" edge="1" parent="1" source="58Is3Ojo0gbrzkN19IPx-78" target="58Is3Ojo0gbrzkN19IPx-51">
          <mxGeometry relative="1" as="geometry" />
        </mxCell>
        <mxCell id="58Is3Ojo0gbrzkN19IPx-78" value="" style="verticalLabelPosition=bottom;verticalAlign=top;html=1;shape=mxgraph.basic.acute_triangle;dx=0.5;fontSize=12;spacing=-30;rotation=-180;" vertex="1" parent="1">
          <mxGeometry x="185" y="360" width="50" height="40" as="geometry" />
        </mxCell>
        <mxCell id="58Is3Ojo0gbrzkN19IPx-82" value="IS-A" style="text;html=1;align=center;verticalAlign=middle;resizable=0;points=[];autosize=1;strokeColor=none;fillColor=none;fontSize=12;" vertex="1" parent="1">
          <mxGeometry x="190" y="360" width="40" height="20" as="geometry" />
        </mxCell>
      </root>
    </mxGraphModel>
  </diagram>
</mxfile>
